<svg xmlns="http://www.w3.org/2000/svg"  viewBox="0 0 16 16" width="32px" height="32px" baseProfile="basic"><path fill="#a2e4f4" d="M8,0c4.593,0,7,1.161,7,1.563v6.643c0,1.725-2.156,6.672-7,7.794c-4.844-1.122-7-6.069-7-7.792V1.563	C1,1.161,3.407,0,8,0"/><path fill="#2583ef" d="M10.373,3C10.256,3,10,3,10,3l0.54,1.839C11.39,4.421,12.303,4.237,13.379,5L14,4.489	C14,4.489,12.862,3,10.373,3z"/><path fill="#194fc6" d="M11.214,6c-0.732,0-1.376,0.297-1.786,0.75c0.41,0.453,1.055,0.75,1.786,0.75S12.59,7.203,13,6.75	C12.59,6.297,11.945,6,11.214,6z M4.786,6C4.055,6,3.41,6.297,3,6.75C3.41,7.203,4.055,7.5,4.786,7.5s1.376-0.297,1.786-0.75	C6.162,6.297,5.518,6,4.786,6z"/><polygon fill="#2583ef" points="6.725,13 7.253,16 8.747,16 9.275,13"/><path fill="#2583ef" d="M9.999,3C9.448,3,9,3.448,9,4.001C9,4.552,9.448,5,9.999,5C10.552,5,11,4.552,11,4.001	C11,3.448,10.552,3,9.999,3z"/><path fill="#2583ef" d="M2,4.489L2.621,5C3.697,4.237,4.61,4.421,5.46,4.839L6,3c0,0-0.256,0-0.373,0	C3.138,3,2,4.489,2,4.489z"/><path fill="#2583ef" d="M5,4.001C5,4.552,5.448,5,6.001,5C6.552,5,7,4.552,7,4.001C7,3.448,6.552,3,6.001,3	C5.448,3,5,3.448,5,4.001z"/><polygon fill="#2583ef" points="12,9 10.446,10 9.6,10 8.5,9 7.5,9 6.388,10 5.554,10 4,9 3,10 5,12 7,12 7.994,11.192 9,12 11,12 13,10"/></svg>